<svg xmlns="http://www.w3.org/2000/svg" viewBox="0 0 7003.738 2147.824">
  <defs>
    <style>
      .cls-1 {
        fill: #87c249;
      }

      .cls-2 {
        fill: none;
        stroke: #fff;
        stroke-linecap: round;
        stroke-width: 40px;
      }

      .cls-3 {
        fill: #607747;
      }

      .cls-4 {
        fill: #464646;
        stroke: #638f36;
        font-size: 1000px;
        font-family: MaiandraGD-Regular, Maiandra GD;
        letter-spacing: 0.011em;
      }

      .cls-5, .cls-6 {
        stroke: none;
      }

      .cls-6 {
        fill: #638f36;
      }
    </style>
  </defs>
  <g id="Logo" transform="translate(6018.738 -4237.176)">
    <g id="Groupe_6" data-name="Groupe 6">
      <g id="Groupe_4" data-name="Groupe 4" transform="translate(-4290.057 589.05)">
        <g id="Tracé_7" data-name="Tracé 7" class="cls-1" transform="translate(-1771.574 4450.205) rotate(-48)">
          <path class="cls-5" d="M 429.23681640625 1277.893188476563 C 427.9123229980469 1276.786376953125 422.4024658203125 1272.149536132813 413.7367248535156 1264.426879882813 C 404.5430297851563 1256.233642578125 389.8162536621094 1242.79296875 371.8679504394531 1225.289672851563 C 351.6951904296875 1205.616821289063 331.64794921875 1184.927001953125 312.2831726074219 1163.794677734375 C 288.0780944824219 1137.380249023438 264.8773193359375 1110.196411132813 243.3251800537109 1082.998046875 C 188.4699554443359 1013.772216796875 143.8341064453125 944.0372924804688 110.6573333740234 875.7305297851563 C 101.0684127807617 855.98779296875 92.32333374023438 836.1033325195313 84.66533660888672 816.6293334960938 C 76.60472106933594 796.131591796875 69.52656555175781 775.5244140625 63.62733459472656 755.3799438476563 C 57.44071960449219 734.2542114257813 52.37948608398438 713.0528564453125 48.58441162109375 692.3646850585938 C 44.61717987060547 670.73779296875 41.92317962646484 649.0708618164063 40.57733154296875 627.9657592773438 C 39.23163986206055 606.8604125976563 39.17333221435547 585.36376953125 40.40410232543945 564.072998046875 C 41.58133316040039 543.7074584960938 43.96948623657227 522.989013671875 47.50179290771484 502.4930114746094 C 50.87010192871094 482.9496154785156 55.36779403686523 463.0928649902344 60.86979293823242 443.4740905761719 C 66.09687042236328 424.8354797363281 72.36733245849609 405.924072265625 79.50687408447266 387.2653198242188 C 104.2085647583008 322.7091674804688 140.2799530029297 258.2003784179688 186.7191772460938 195.531005859375 C 204.9645690917969 170.9088592529297 224.8739471435547 146.5153198242188 245.8942565917969 123.0277786254883 C 262.7105712890625 104.2377777099609 280.2713317871094 85.98223876953125 298.0887145996094 68.76869964599609 C 313.9400939941406 53.45454406738281 327.0634765625 41.81808471679688 335.2813415527344 34.75300598144531 C 342.946044921875 28.16352462768555 347.8787231445313 24.22198295593262 349.1338500976563 23.22866630554199 C 350.4583435058594 24.33542442321777 355.9682006835938 28.97226715087891 364.6339416503906 36.69500732421875 C 373.82763671875 44.88808441162109 388.5545654296875 58.32885360717773 406.5027160644531 75.83223724365234 C 426.6754760742188 95.5050048828125 446.7227172851563 116.1948547363281 466.0874938964844 137.3271636962891 C 490.2925720214844 163.7414703369141 513.4934692382813 190.9254608154297 535.045654296875 218.123779296875 C 589.9006958007813 287.3494567871094 634.5365600585938 357.0843811035156 667.7133178710938 425.3913269042969 C 677.3024291992188 445.1339416503906 686.04736328125 465.0184020996094 693.705322265625 484.4924011230469 C 701.7659301757813 504.9900817871094 708.8441162109375 525.5972900390625 714.7434692382813 545.7417602539063 C 720.929931640625 566.8674926757813 725.9911499023438 588.06884765625 729.7862548828125 608.7570190429688 C 733.7534790039063 630.3839111328125 736.447509765625 652.0508422851563 737.7933349609375 673.1559448242188 C 739.1390380859375 694.2612915039063 739.1973266601563 715.7579345703125 737.966552734375 737.0487060546875 C 736.789306640625 757.4142456054688 734.4011840820313 778.1326904296875 730.868896484375 798.6287231445313 C 727.5005493164063 818.1720581054688 723.0028686523438 838.0288696289063 717.5008544921875 857.6476440429688 C 712.2738037109375 876.2862548828125 706.0033569335938 895.1976318359375 698.86376953125 913.8563842773438 C 674.162109375 978.4125366210938 638.0906982421875 1042.921264648438 591.6514892578125 1105.590698242188 C 573.4061279296875 1130.212890625 553.4967041015625 1154.606567382813 532.4764404296875 1178.093872070313 C 515.6600952148438 1196.884033203125 498.0993347167969 1215.139526367188 480.2819519042969 1232.353149414063 C 464.4305725097656 1247.667358398438 451.3071899414063 1259.303833007813 443.0893249511719 1266.368896484375 C 435.4246215820313 1272.958374023438 430.491943359375 1276.89990234375 429.23681640625 1277.893188476563 Z"/>
          <path class="cls-6" d="M 349.1253356933594 23.87353515625 C 347.4861450195313 25.1778564453125 342.7281799316406 29.0101318359375 335.6073303222656 35.132080078125 C 327.3944091796875 42.19287109375 314.2788696289063 53.8223876953125 298.4362487792969 69.1280517578125 C 280.6274719238281 86.33349609375 263.0751953125 104.580078125 246.266845703125 123.3612060546875 C 225.2567138671875 146.8372802734375 205.357177734375 171.2188720703125 187.120849609375 195.8287353515625 C 140.708740234375 258.46142578125 104.6593627929688 322.9302368164063 79.97393798828125 387.4439086914063 C 72.83978271484375 406.0885620117188 66.57427978515625 424.9851684570313 61.3511962890625 443.609130859375 C 55.85382080078125 463.2114868164063 51.35992431640625 483.0513305664063 47.99456787109375 502.5779418945313 C 44.46533203125 523.0552978515625 42.0794677734375 543.7550048828125 40.9031982421875 564.1019287109375 C 39.67364501953125 585.3723754882813 39.73193359375 606.8486938476563 41.076416015625 627.9338989257813 C 42.4208984375 649.0185546875 45.11224365234375 670.6648559570313 49.07562255859375 692.271484375 C 52.86749267578125 712.9417724609375 57.924072265625 734.1253051757813 64.10546875 755.2334594726563 C 70.0001220703125 775.3628540039063 77.0728759765625 795.9550170898438 85.1273193359375 816.4379272460938 C 92.78009033203125 835.899169921875 101.5191650390625 855.7708740234375 111.1019287109375 875.5011596679688 C 144.2607421875 943.7733154296875 188.8743896484375 1013.475158691406 243.7037963867188 1082.6708984375 C 265.247802734375 1109.859619140625 288.4400939941406 1137.034423828125 312.6365661621094 1163.440063476563 C 331.9950256347656 1184.566284179688 352.0359497070313 1205.250122070313 372.2025756835938 1224.917358398438 C 390.1456298828125 1242.416259765625 404.868408203125 1255.853515625 414.0594787597656 1264.044677734375 C 422.1608276367188 1271.2646484375 427.5032958984375 1275.786743164063 429.2453308105469 1277.248046875 C 430.884521484375 1275.943725585938 435.6424865722656 1272.111450195313 442.7633361816406 1265.989501953125 C 450.9762573242188 1258.9287109375 464.091796875 1247.299194335938 479.9344177246094 1231.993408203125 C 497.7431945800781 1214.788208007813 515.2955322265625 1196.541625976563 532.103759765625 1177.760375976563 C 553.1139526367188 1154.284423828125 573.0134887695313 1129.90283203125 591.2498168945313 1105.29296875 C 637.6619262695313 1042.66015625 673.7113037109375 978.1914672851563 698.396728515625 913.6776123046875 C 705.5308837890625 895.033203125 711.79638671875 876.1365356445313 717.0194702148438 857.5125732421875 C 722.516845703125 837.9102783203125 727.0107421875 818.0704345703125 730.3760986328125 798.5437622070313 C 733.9053344726563 778.0662231445313 736.2911987304688 757.36669921875 737.4674682617188 737.019775390625 C 738.697021484375 715.7493286132813 738.6387329101563 694.2730102539063 737.2942504882813 673.1878051757813 C 735.9497680664063 652.1031494140625 733.2584228515625 630.4568481445313 729.2950439453125 608.85009765625 C 725.503173828125 588.1797485351563 720.446533203125 566.9963989257813 714.2651977539063 545.8880615234375 C 708.3705444335938 525.7587280273438 701.2977905273438 505.1666870117188 693.2433471679688 484.6837768554688 C 685.590576171875 465.2225341796875 676.8515014648438 445.3507080078125 667.2687377929688 425.620361328125 C 634.1099853515625 357.3482666015625 589.4962768554688 287.6463623046875 534.6668701171875 218.4508056640625 C 513.1228637695313 191.261962890625 489.9305725097656 164.087158203125 465.7341003417969 137.6815185546875 C 446.3756408691406 116.555419921875 426.334716796875 95.8714599609375 406.1680908203125 76.2042236328125 C 388.2250366210938 58.705322265625 373.5022583007813 45.26806640625 364.3111877441406 37.076904296875 C 356.2098388671875 29.85693359375 350.8673706054688 25.3348388671875 349.1253356933594 23.87353515625 M 349.142578125 22.5849609375 C 349.142578125 22.5849609375 716.1771850585938 326.3025512695313 738.292236328125 673.1240844726563 C 760.4071655273438 1019.945434570313 429.2280883789063 1278.536499023438 429.2280883789063 1278.536499023438 C 429.2280883789063 1278.536499023438 62.1934814453125 974.8189697265625 40.07843017578125 627.9976196289063 C 17.9635009765625 281.1762084960938 349.142578125 22.5849609375 349.142578125 22.5849609375 Z"/>
        </g>
        <line id="Ligne_13" data-name="Ligne 13" class="cls-2" x2="605.211" y2="497.899" transform="translate(-1136.655 4485.551)"/>
      </g>
      <g id="Groupe_5" data-name="Groupe 5" transform="matrix(0.438, 0.899, -0.899, 0.438, -102.118, 3846.149)">
        <g id="Tracé_7-2" data-name="Tracé 7" class="cls-3" transform="translate(-1771.574 4450.205) rotate(-48)">
          <path class="cls-5" d="M 429.23681640625 1277.893188476563 C 427.9123229980469 1276.786376953125 422.4024658203125 1272.149536132813 413.7367248535156 1264.426879882813 C 404.5430297851563 1256.233642578125 389.8162536621094 1242.79296875 371.8679504394531 1225.289672851563 C 351.6951904296875 1205.616821289063 331.64794921875 1184.927001953125 312.2831726074219 1163.794677734375 C 288.0780944824219 1137.380249023438 264.8773193359375 1110.196411132813 243.3251800537109 1082.998046875 C 188.4699554443359 1013.772216796875 143.8341064453125 944.0372924804688 110.6573333740234 875.7305297851563 C 101.0684127807617 855.98779296875 92.32333374023438 836.1033325195313 84.66533660888672 816.6293334960938 C 76.60472106933594 796.131591796875 69.52656555175781 775.5244140625 63.62733459472656 755.3799438476563 C 57.44071960449219 734.2542114257813 52.37948608398438 713.0528564453125 48.58441162109375 692.3646850585938 C 44.61717987060547 670.73779296875 41.92317962646484 649.0708618164063 40.57733154296875 627.9657592773438 C 39.23163986206055 606.8604125976563 39.17333221435547 585.36376953125 40.40410232543945 564.072998046875 C 41.58133316040039 543.7074584960938 43.96948623657227 522.989013671875 47.50179290771484 502.4930114746094 C 50.87010192871094 482.9496154785156 55.36779403686523 463.0928649902344 60.86979293823242 443.4740905761719 C 66.09687042236328 424.8354797363281 72.36733245849609 405.924072265625 79.50687408447266 387.2653198242188 C 104.2085647583008 322.7091674804688 140.2799530029297 258.2003784179688 186.7191772460938 195.531005859375 C 204.9645690917969 170.9088592529297 224.8739471435547 146.5153198242188 245.8942565917969 123.0277786254883 C 262.7105712890625 104.2377777099609 280.2713317871094 85.98223876953125 298.0887145996094 68.76869964599609 C 313.9400939941406 53.45454406738281 327.0634765625 41.81808471679688 335.2813415527344 34.75300598144531 C 342.946044921875 28.16352462768555 347.8787231445313 24.22198295593262 349.1338500976563 23.22866630554199 C 350.4583435058594 24.33542442321777 355.9682006835938 28.97226715087891 364.6339416503906 36.69500732421875 C 373.82763671875 44.88808441162109 388.5545654296875 58.32885360717773 406.5027160644531 75.83223724365234 C 426.6754760742188 95.5050048828125 446.7227172851563 116.1948547363281 466.0874938964844 137.3271636962891 C 490.2925720214844 163.7414703369141 513.4934692382813 190.9254608154297 535.045654296875 218.123779296875 C 589.9006958007813 287.3494567871094 634.5365600585938 357.0843811035156 667.7133178710938 425.3913269042969 C 677.3024291992188 445.1339416503906 686.04736328125 465.0184020996094 693.705322265625 484.4924011230469 C 701.7659301757813 504.9900817871094 708.8441162109375 525.5972900390625 714.7434692382813 545.7417602539063 C 720.929931640625 566.8674926757813 725.9911499023438 588.06884765625 729.7862548828125 608.7570190429688 C 733.7534790039063 630.3839111328125 736.447509765625 652.0508422851563 737.7933349609375 673.1559448242188 C 739.1390380859375 694.2612915039063 739.1973266601563 715.7579345703125 737.966552734375 737.0487060546875 C 736.789306640625 757.4142456054688 734.4011840820313 778.1326904296875 730.868896484375 798.6287231445313 C 727.5005493164063 818.1720581054688 723.0028686523438 838.0288696289063 717.5008544921875 857.6476440429688 C 712.2738037109375 876.2862548828125 706.0033569335938 895.1976318359375 698.86376953125 913.8563842773438 C 674.162109375 978.4125366210938 638.0906982421875 1042.921264648438 591.6514892578125 1105.590698242188 C 573.4061279296875 1130.212890625 553.4967041015625 1154.606567382813 532.4764404296875 1178.093872070313 C 515.6600952148438 1196.884033203125 498.0993347167969 1215.139526367188 480.2819519042969 1232.353149414063 C 464.4305725097656 1247.667358398438 451.3071899414063 1259.303833007813 443.0893249511719 1266.368896484375 C 435.4246215820313 1272.958374023438 430.491943359375 1276.89990234375 429.23681640625 1277.893188476563 Z"/>
          <path class="cls-6" d="M 349.1253356933594 23.87353515625 C 347.4861450195313 25.1778564453125 342.7281799316406 29.0101318359375 335.6073303222656 35.132080078125 C 327.3944091796875 42.19287109375 314.2788696289063 53.8223876953125 298.4362487792969 69.1280517578125 C 280.6274719238281 86.33349609375 263.0751953125 104.580078125 246.266845703125 123.3612060546875 C 225.2567138671875 146.8372802734375 205.357177734375 171.2188720703125 187.120849609375 195.8287353515625 C 140.708740234375 258.46142578125 104.6593627929688 322.9302368164063 79.97393798828125 387.4439086914063 C 72.83978271484375 406.0885620117188 66.57427978515625 424.9851684570313 61.3511962890625 443.609130859375 C 55.85382080078125 463.2114868164063 51.35992431640625 483.0513305664063 47.99456787109375 502.5779418945313 C 44.46533203125 523.0552978515625 42.0794677734375 543.7550048828125 40.9031982421875 564.1019287109375 C 39.67364501953125 585.3723754882813 39.73193359375 606.8486938476563 41.076416015625 627.9338989257813 C 42.4208984375 649.0185546875 45.11224365234375 670.6648559570313 49.07562255859375 692.271484375 C 52.86749267578125 712.9417724609375 57.924072265625 734.1253051757813 64.10546875 755.2334594726563 C 70.0001220703125 775.3628540039063 77.0728759765625 795.9550170898438 85.1273193359375 816.4379272460938 C 92.78009033203125 835.899169921875 101.5191650390625 855.7708740234375 111.1019287109375 875.5011596679688 C 144.2607421875 943.7733154296875 188.8743896484375 1013.475158691406 243.7037963867188 1082.6708984375 C 265.247802734375 1109.859619140625 288.4400939941406 1137.034423828125 312.6365661621094 1163.440063476563 C 331.9950256347656 1184.566284179688 352.0359497070313 1205.250122070313 372.2025756835938 1224.917358398438 C 390.1456298828125 1242.416259765625 404.868408203125 1255.853515625 414.0594787597656 1264.044677734375 C 422.1608276367188 1271.2646484375 427.5032958984375 1275.786743164063 429.2453308105469 1277.248046875 C 430.884521484375 1275.943725585938 435.6424865722656 1272.111450195313 442.7633361816406 1265.989501953125 C 450.9762573242188 1258.9287109375 464.091796875 1247.299194335938 479.9344177246094 1231.993408203125 C 497.7431945800781 1214.788208007813 515.2955322265625 1196.541625976563 532.103759765625 1177.760375976563 C 553.1139526367188 1154.284423828125 573.0134887695313 1129.90283203125 591.2498168945313 1105.29296875 C 637.6619262695313 1042.66015625 673.7113037109375 978.1914672851563 698.396728515625 913.6776123046875 C 705.5308837890625 895.033203125 711.79638671875 876.1365356445313 717.0194702148438 857.5125732421875 C 722.516845703125 837.9102783203125 727.0107421875 818.0704345703125 730.3760986328125 798.5437622070313 C 733.9053344726563 778.0662231445313 736.2911987304688 757.36669921875 737.4674682617188 737.019775390625 C 738.697021484375 715.7493286132813 738.6387329101563 694.2730102539063 737.2942504882813 673.1878051757813 C 735.9497680664063 652.1031494140625 733.2584228515625 630.4568481445313 729.2950439453125 608.85009765625 C 725.503173828125 588.1797485351563 720.446533203125 566.9963989257813 714.2651977539063 545.8880615234375 C 708.3705444335938 525.7587280273438 701.2977905273438 505.1666870117188 693.2433471679688 484.6837768554688 C 685.590576171875 465.2225341796875 676.8515014648438 445.3507080078125 667.2687377929688 425.620361328125 C 634.1099853515625 357.3482666015625 589.4962768554688 287.6463623046875 534.6668701171875 218.4508056640625 C 513.1228637695313 191.261962890625 489.9305725097656 164.087158203125 465.7341003417969 137.6815185546875 C 446.3756408691406 116.555419921875 426.334716796875 95.8714599609375 406.1680908203125 76.2042236328125 C 388.2250366210938 58.705322265625 373.5022583007813 45.26806640625 364.3111877441406 37.076904296875 C 356.2098388671875 29.85693359375 350.8673706054688 25.3348388671875 349.1253356933594 23.87353515625 M 349.142578125 22.5849609375 C 349.142578125 22.5849609375 716.1771850585938 326.3025512695313 738.292236328125 673.1240844726563 C 760.4071655273438 1019.945434570313 429.2280883789063 1278.536499023438 429.2280883789063 1278.536499023438 C 429.2280883789063 1278.536499023438 62.1934814453125 974.8189697265625 40.07843017578125 627.9976196289063 C 17.9635009765625 281.1762084960938 349.142578125 22.5849609375 349.142578125 22.5849609375 Z"/>
        </g>
        <line id="Ligne_13-2" data-name="Ligne 13" class="cls-2" x2="605.211" y2="497.899" transform="translate(-1136.655 4485.551)"/>
      </g>
    </g>
    <text id="Aroma_Zone" data-name="Aroma Zone" class="cls-4" transform="translate(-1817 6148)"><tspan x="-2800.232" y="0">Aroma Zone</tspan></text>
  </g>
</svg>
