<svg xmlns="http://www.w3.org/2000/svg" viewBox="0 0 2261.649 1765.402">
  <defs>
    <style>
      .cls-1 {
        fill: #87c249;
        stroke: #1c3823;
        stroke-width: 10px;
      }
    </style>
  </defs>
  <path id="Exclusion_3" data-name="Exclusion 3" class="cls-1" d="M996.539,2294.354c-4.742,0-9.579-.014-14.377-.041-37.259-.211-75.366-1.25-113.263-3.089-34.432-1.67-69.469-4.038-104.138-7.039-58.367-5.052-116.751-11.965-173.529-20.549-50.509-7.636-90.374-15.209-114.923-20.217-24.012-4.9-38.51-8.38-41.172-9.029.206-2.736,1.377-17.611,4.136-41.947,2.822-24.889,7.938-65.139,16.286-115.545,9.383-56.659,20.849-114.322,34.08-171.387,7.859-33.895,16.434-67.948,25.486-101.215,9.964-36.615,20.751-73.178,32.063-108.675,12.3-38.589,25.535-76.933,39.349-113.967,14.871-39.868,30.8-79.263,47.343-117.091,17.684-40.436,36.541-80.152,56.047-118.048,10.208-19.832,20.809-39.584,31.509-58.707,11.011-19.676,22.433-39.235,33.951-58.133,11.84-19.426,24.114-38.7,36.481-57.289,12.7-19.092,25.857-37.992,39.1-56.174,13.6-18.668,27.661-37.1,41.807-54.789,14.506-18.138,29.512-36.014,44.6-53.132,15.46-17.536,31.437-34.764,47.487-51.205,16.431-16.831,33.409-33.32,50.46-49.008,17.439-16.043,35.447-31.7,53.522-46.539,18.474-15.164,37.542-29.9,56.673-43.8s39.032-27.476,59.169-40.364c19.69-12.6,40.146-24.889,60.8-36.521,20.195-11.372,41.123-22.423,62.2-32.846,20.6-10.187,41.924-20.058,63.373-29.34,20.944-9.063,42.583-17.811,64.315-26,21.2-7.99,43.079-15.671,65.026-22.83,21.392-6.977,43.432-13.648,65.508-19.827,21.493-6.016,43.618-11.733,65.759-16.992,21.531-5.113,43.662-9.933,65.779-14.325,21.5-4.268,43.559-8.246,65.57-11.825,42.082-6.842,85.683-12.5,129.59-16.824,41.082-4.044,83.471-7.02,125.99-8.844,34.746-1.49,70.455-2.246,106.135-2.246,4.774,0,9.624.014,14.414.041,37.285.212,75.392,1.251,113.264,3.089,34.445,1.671,69.482,4.039,104.137,7.038,58.364,5.051,116.747,11.965,173.529,20.549,50.546,7.642,90.395,15.213,114.923,20.218,24.014,4.9,38.51,8.38,41.172,9.028-.206,2.736-1.377,17.615-4.136,41.947-2.822,24.886-7.937,65.133-16.285,115.545-9.382,56.651-20.848,114.314-34.08,171.387-7.858,33.893-16.433,67.947-25.486,101.216-9.959,36.6-20.747,73.162-32.063,108.674-12.295,38.586-25.534,76.931-39.348,113.967-14.878,39.884-30.806,79.279-47.344,117.091-17.687,40.441-36.544,80.158-56.048,118.049-10.216,19.848-20.817,39.6-31.509,58.707-11,19.664-22.426,39.223-33.951,58.133-11.848,19.44-24.122,38.715-36.48,57.29-12.718,19.114-25.874,38.013-39.1,56.174-13.6,18.673-27.665,37.106-41.807,54.789-14.5,18.131-29.506,36.008-44.6,53.132-15.463,17.54-31.44,34.768-47.488,51.206-16.431,16.831-33.408,33.319-50.46,49.008-17.432,16.037-35.439,31.695-53.522,46.539-18.477,15.168-37.545,29.9-56.673,43.8s-39.043,27.484-59.169,40.364c-19.708,12.613-40.164,24.9-60.8,36.521-20.191,11.371-41.118,22.422-62.2,32.846-20.589,10.181-41.911,20.052-63.374,29.34-20.944,9.063-42.583,17.811-64.315,26-21.214,7.994-43.091,15.676-65.026,22.83-21.367,6.97-43.407,13.641-65.508,19.827-21.5,6.018-43.625,11.735-65.759,16.992-21.514,5.11-43.646,9.93-65.779,14.326-21.5,4.269-43.561,8.247-65.57,11.825-42.059,6.839-85.659,12.5-129.59,16.826-41.089,4.044-83.478,7.019-125.99,8.842C1067.966,2293.6,1032.245,2294.353,996.539,2294.354Zm938.222-994.628a313.738,313.738,0,0,0-50.709,3.966c-8,1.316-15.906,2.983-23.492,4.956s-15.075,4.308-22.25,6.939a226.673,226.673,0,0,0-21.008,8.922,217.757,217.757,0,0,0-38.292,23.792,226.074,226.074,0,0,0-17.284,14.87,221.889,221.889,0,0,0-15.621,16.459,209.041,209.041,0,0,0-13.538,17.654,203.357,203.357,0,0,0-20.828,38.892,215,215,0,0,0-7.29,21.239c-2.073,7.245-3.825,14.793-5.207,22.434s-2.434,15.594-3.124,23.629-1.042,16.391-1.042,24.824a260.012,260.012,0,0,0,3.9,45.689c1.293,7.22,2.933,14.36,4.873,21.222a207.245,207.245,0,0,0,6.823,20.141,197.067,197.067,0,0,0,19.493,37.037,202.933,202.933,0,0,0,12.671,16.9,216.161,216.161,0,0,0,30.788,30.134,203.166,203.166,0,0,0,35.782,22.911,208.61,208.61,0,0,0,19.613,8.592c6.7,2.534,13.683,4.782,20.762,6.682s14.45,3.506,21.91,4.773a283.364,283.364,0,0,0,47.264,3.819,263.071,263.071,0,0,0,28.612-1.536,237.576,237.576,0,0,0,27.3-4.606,222.85,222.85,0,0,0,26-7.677,218.422,218.422,0,0,0,24.687-10.748,226.316,226.316,0,0,0,23.4-13.819,243.566,243.566,0,0,0,22.15-16.89,271.885,271.885,0,0,0,20.895-19.96c6.724-7.132,13.332-14.881,19.64-23.031a177.514,177.514,0,0,0,18-28.305,226.239,226.239,0,0,0,13.832-33.646,244.5,244.5,0,0,0,8.812-36.53,234.758,234.758,0,0,0,2.938-36.957,244.167,244.167,0,0,0-3.886-44.14c-1.289-6.989-2.922-13.909-4.856-20.568a199.367,199.367,0,0,0-6.8-19.567,193.072,193.072,0,0,0-19.427-36.129,209.47,209.47,0,0,0-27.2-32.124,212.018,212.018,0,0,0-33.205-26.356,203.894,203.894,0,0,0-18.195-10.354,206.9,206.9,0,0,0-19.256-8.471,224.258,224.258,0,0,0-41.7-11.3A272.255,272.255,0,0,0,1934.761,1299.725Zm-894.25-191.407c-7.654,0-16.566,1.509-26.489,4.487s-22,7.936-35.889,14.74a134.728,134.728,0,0,1,10.9,28.892,280.829,280.829,0,0,1,7.049,38.826c1.7,14.529,3,36.433,3.846,65.1s1.282,64.907,1.282,107.719c0,72.591-.862,136.559-2.563,190.124-1.7,53.583-4.433,101.739-8.118,143.128,14.881,6.661,29.543,12.537,43.579,17.464s27.832,9.04,41.016,12.23a354.766,354.766,0,0,0,38.986,7.209,301.834,301.834,0,0,0,37.491,2.4c8.575,0,17.086-.354,25.3-1.052s16.349-1.758,24.2-3.154,15.615-3.164,23.095-5.257a230.8,230.8,0,0,0,21.993-7.36,221.454,221.454,0,0,0,40.682-21.029,229.5,229.5,0,0,0,18.689-13.669c6.018-4.884,11.935-10.19,17.587-15.771s11.026-11.419,15.971-17.347a228.521,228.521,0,0,0,13.842-18.4,216.435,216.435,0,0,0,21.3-39.934,221.918,221.918,0,0,0,7.454-21.539c2.12-7.321,3.911-14.921,5.324-22.588s2.488-15.62,3.194-23.635,1.065-16.321,1.065-24.684a242.594,242.594,0,0,0-3.271-40.428,199.3,199.3,0,0,0-9.813-36.69,181.235,181.235,0,0,0-16.355-32.951,186.145,186.145,0,0,0-22.9-29.213,183,183,0,0,0-27.891-23.926,167.793,167.793,0,0,0-31.336-17.09,175.843,175.843,0,0,0-34.781-10.254,208.329,208.329,0,0,0-38.225-3.418,198.3,198.3,0,0,0-33.805,2.938,218.316,218.316,0,0,0-33.913,8.812,267.524,267.524,0,0,0-34.553,14.9,359.8,359.8,0,0,0-35.729,21.2c.567-39.709,1.718-81.467,3.418-124.115s2.563-66.451,2.563-70.709a170.916,170.916,0,0,0-1.869-27.557c-1.24-7.371-3.127-13.049-5.607-16.876a22.99,22.99,0,0,0-10.414-8.652A41.219,41.219,0,0,0,1040.511,1108.318Zm509.076,202.088a111.012,111.012,0,0,0-16.343,1.228,123.029,123.029,0,0,0-16.556,3.685,137.168,137.168,0,0,0-16.449,6.035,149.461,149.461,0,0,0-16.021,8.278,163.507,163.507,0,0,1,9.933,25.955,240.1,240.1,0,0,1,6.729,30.869c1.7,11.055,2.995,23.956,3.845,38.345s1.281,30.666,1.281,48.385c0,32.6-1.294,72.133-3.845,117.493s-3.845,74.974-3.845,88.013a181.093,181.093,0,0,0,1.869,28.465c1.24,7.548,3.127,13.28,5.607,17.036a20.959,20.959,0,0,0,4.579,4.953,25.346,25.346,0,0,0,6.262,3.538c4.713,1.878,10.625,2.83,17.571,2.83a102.877,102.877,0,0,0,15.274-1.175,123.778,123.778,0,0,0,15.915-3.525,171.177,171.177,0,0,0,34.18-14.526,167.788,167.788,0,0,1-10.414-27.664,279.685,279.685,0,0,1-7.316-34.287c-1.914-12.472-3.369-26.775-4.326-42.511s-1.442-33.342-1.442-52.338c0-40.547,1.294-83.958,3.845-129.027s3.845-70.23,3.845-74.769a112.785,112.785,0,0,0-1.816-21.949c-1.2-5.918-3.037-10.536-5.447-13.725a21.81,21.81,0,0,0-10.361-7.21A49.825,49.825,0,0,0,1549.587,1310.406Zm-4.273-178.589a63.9,63.9,0,0,0-11.723,1.055,56.086,56.086,0,0,0-10.815,3.164,55.461,55.461,0,0,0-9.907,5.274,63.338,63.338,0,0,0-16.475,16.262,53.5,53.5,0,0,0-8.545,20.4,61.038,61.038,0,0,0-1.068,11.523,54.611,54.611,0,0,0,3.311,19.546,41.388,41.388,0,0,0,9.933,15.06,43.048,43.048,0,0,0,15.594,9.613,60.371,60.371,0,0,0,20.295,3.2,74.5,74.5,0,0,0,12.47-1.015,61.736,61.736,0,0,0,11.349-3.044,56.671,56.671,0,0,0,10.227-5.074,58.671,58.671,0,0,0,9.106-7.1,57.561,57.561,0,0,0,7.477-8.625,51.842,51.842,0,0,0,5.341-9.64,53.325,53.325,0,0,0,3.2-10.655,62.257,62.257,0,0,0,1.068-11.669,49.8,49.8,0,0,0-3.578-19.12,45.358,45.358,0,0,0-10.735-15.487,47.67,47.67,0,0,0-16.289-10.254A57.619,57.619,0,0,0,1545.314,1131.818Zm378.766,552.856a183.5,183.5,0,0,1-32.284-2.764,153.094,153.094,0,0,1-29.346-8.292,142.963,142.963,0,0,1-26.409-13.819,154.763,154.763,0,0,1-42.724-42.938,144.194,144.194,0,0,1-13.752-26.556,155.207,155.207,0,0,1-8.252-29.52,186.628,186.628,0,0,1-2.75-32.484,235.083,235.083,0,0,1,2.71-36.356,184.02,184.02,0,0,1,8.131-32.591,157.028,157.028,0,0,1,13.552-28.826,150.961,150.961,0,0,1,18.973-25.061,146.232,146.232,0,0,1,23.378-20.281,139.139,139.139,0,0,1,26.77-14.486,152.5,152.5,0,0,1,30.161-8.692,196.082,196.082,0,0,1,66.544-.107,154.078,154.078,0,0,1,29.76,8.372,140.47,140.47,0,0,1,26.529,13.952,146.582,146.582,0,0,1,23.3,19.533,149.65,149.65,0,0,1,18.973,23.966,147.688,147.688,0,0,1,13.552,27.25,165.252,165.252,0,0,1,8.131,30.534,204.375,204.375,0,0,1,2.71,33.819A210.918,210.918,0,0,1,2078.97,1554a171.616,171.616,0,0,1-8.292,31.389,154.149,154.149,0,0,1-13.819,28.1,156.365,156.365,0,0,1-19.346,24.821,152.152,152.152,0,0,1-23.672,20.281,142.013,142.013,0,0,1-26.8,14.486,151.916,151.916,0,0,1-29.92,8.692A183.2,183.2,0,0,1,1924.079,1684.674Zm-758.386-2.564a162.39,162.39,0,0,1-23.285-1.709,182.1,182.1,0,0,1-23.712-5.127,220.587,220.587,0,0,1-24.459-8.652c-8.292-3.472-16.881-7.6-25.529-12.283-.851-32.365-1.426-57.018-1.708-73.272-.284-16.273-.427-31.439-.427-45.075,0-26.084.575-66.19,1.709-119.2v-2.564c11.2-7.371,22.16-13.876,32.577-19.333a256.509,256.509,0,0,1,30.228-13.565,182.914,182.914,0,0,1,28.412-8.011,144.182,144.182,0,0,1,27.13-2.67,164.307,164.307,0,0,1,28.6,2.4,130.2,130.2,0,0,1,25.554,7.21,115.634,115.634,0,0,1,22.51,12.016,118.524,118.524,0,0,1,19.466,16.823,123.337,123.337,0,0,1,15.7,20.882,131.088,131.088,0,0,1,11.215,24.193,156.824,156.824,0,0,1,6.729,27.5,203.626,203.626,0,0,1,2.243,30.815,226.425,226.425,0,0,1-2.7,35.5,183.122,183.122,0,0,1-8.091,32.163,161.912,161.912,0,0,1-13.485,28.826,160.274,160.274,0,0,1-18.879,25.488,152.25,152.25,0,0,1-23.045,20.842,136.338,136.338,0,0,1-25.982,14.887,140.784,140.784,0,0,1-28.919,8.932A166.165,166.165,0,0,1,1165.693,1682.11Z" transform="translate(-429.832 -533.952)"/>
</svg>
