<svg xmlns="http://www.w3.org/2000/svg" viewBox="0 0 3137.8 2849.103">
  <defs>
    <style>
      .cls-1 {
        fill: #87c249;
      }

      .cls-1, .cls-2 {
        stroke: #1c3823;
        stroke-width: 10px;
      }

      .cls-2 {
        fill: #1c3823;
        font-size: 875px;
        font-family: MaiandraGD-Regular, Maiandra GD;
        letter-spacing: 0.011em;
      }
    </style>
  </defs>
  <g id="Logo_Bio" data-name="Logo Bio" transform="translate(6201.865 -7721.085)">
    <path id="Tracé_8" data-name="Tracé 8" class="cls-1" d="M740.8,2783.093c-2.01-1.705-13.321-11.358-31.5-28-18.479-16.915-48.036-44.713-83.905-81.091-40.316-40.887-80.227-84.057-118.623-128.31-22.8-26.275-45.307-53.228-66.9-80.112-23.757-29.572-47-59.791-69.074-89.817-24-32.637-47.236-65.885-69.072-98.822-23.516-35.469-46.025-71.512-66.9-107.126-22.316-38.07-43.364-76.671-62.56-114.73-10.048-19.922-19.8-40.108-28.974-60-9.447-20.475-18.557-41.213-27.075-61.636-8.757-21-17.137-42.259-24.9-63.187-7.978-21.494-15.536-43.246-22.464-64.651-7.108-21.96-13.753-44.175-19.751-66.026-6.148-22.4-11.79-45.046-16.768-67.315-5.1-22.806-9.645-45.858-13.514-68.516-3.959-23.185-7.319-46.611-9.988-69.629-2.729-23.535-4.812-47.307-6.191-70.655C1.215,1439.612.5,1415.524.5,1391.874s.715-47.738,2.124-71.594c1.379-23.349,3.462-47.121,6.191-70.655,2.669-23.018,6.03-46.445,9.988-69.629,3.869-22.658,8.415-45.71,13.514-68.516,4.979-22.269,10.62-44.917,16.768-67.315,6-21.851,12.644-44.066,19.751-66.026,6.928-21.4,14.486-43.156,22.464-64.651,7.768-20.929,16.147-42.188,24.9-63.187,8.518-20.424,17.628-41.161,27.075-61.636,9.178-19.89,18.926-40.076,28.974-60,19.2-38.06,40.244-76.661,62.56-114.73,20.876-35.614,43.385-71.657,66.9-107.126,21.837-32.936,45.076-66.185,69.072-98.822,22.077-30.026,45.316-60.245,69.074-89.817,21.6-26.884,44.108-53.837,66.9-80.112,38.4-44.253,78.306-87.422,118.623-128.31,35.87-36.378,65.426-64.176,83.905-81.091,18.184-16.644,29.495-26.3,31.5-28,2.01,1.7,13.321,11.358,31.5,28,18.479,16.915,48.036,44.713,83.905,81.091,40.316,40.887,80.227,84.057,118.623,128.31,22.8,26.275,45.307,53.228,66.9,80.112,23.757,29.572,47,59.79,69.074,89.817,24,32.637,47.236,65.885,69.073,98.822,23.516,35.469,46.025,71.512,66.9,107.126,22.316,38.07,43.364,76.671,62.56,114.73,10.047,19.922,19.8,40.108,28.974,60,9.448,20.475,18.557,41.212,27.075,61.636,8.758,21,17.137,42.259,24.9,63.188,7.978,21.494,15.536,43.246,22.464,64.651,7.108,21.96,13.753,44.175,19.751,66.026,6.148,22.4,11.79,45.046,16.768,67.315,5.1,22.806,9.645,45.858,13.514,68.516,3.958,23.185,7.319,46.611,9.988,69.629,2.729,23.535,4.812,47.307,6.191,70.655,1.41,23.856,2.124,47.944,2.124,71.594s-.715,47.738-2.124,71.594c-1.379,23.349-3.463,47.121-6.191,70.655-2.669,23.018-6.03,46.445-9.988,69.629-3.869,22.658-8.415,45.71-13.514,68.516-4.979,22.269-10.62,44.917-16.768,67.315-6,21.851-12.644,44.066-19.751,66.026-6.928,21.405-14.486,43.156-22.464,64.651-7.768,20.929-16.147,42.188-24.9,63.188-8.518,20.424-17.627,41.161-27.075,61.636-9.178,19.89-18.927,40.076-28.974,60-19.2,38.06-40.244,76.661-62.56,114.73-20.876,35.614-43.385,71.657-66.9,107.126-21.837,32.937-45.076,66.185-69.073,98.822-22.077,30.026-45.316,60.245-69.074,89.817-21.6,26.884-44.107,53.837-66.9,80.112-38.4,44.252-78.306,87.422-118.623,128.31-35.87,36.378-65.426,64.177-83.905,81.091C754.12,2771.735,742.809,2781.388,740.8,2783.093Z" transform="matrix(0.588, 0.809, -0.809, 0.588, -3942.346, 7728.194)"/>
    <text id="bio" class="cls-2" transform="translate(-4632.5 9464.5)"><tspan x="-626.568" y="0">bio</tspan></text>
  </g>
</svg>
